<mxfile host="app.diagrams.net" agent="Mozilla/5.0 (Macintosh; Intel Mac OS X 10_15_7) AppleWebKit/537.36 (KHTML, like Gecko) Chrome/134.0.0.0 Safari/537.36" version="26.1.1">
  <diagram name="Page-1" id="e2QMwJTxoDrHVF-mw8WJ">
    <mxGraphModel dx="2284" dy="905" grid="1" gridSize="10" guides="1" tooltips="1" connect="1" arrows="1" fold="1" page="1" pageScale="1" pageWidth="850" pageHeight="1100" math="0" shadow="0">
      <root>
        <mxCell id="0" />
        <mxCell id="1" parent="0" />
        <mxCell id="pL6tyoCTBJun-EuuIpV--1" value="Data Retriever" style="rounded=0;whiteSpace=wrap;html=1;" vertex="1" parent="1">
          <mxGeometry x="100" y="140" width="120" height="60" as="geometry" />
        </mxCell>
        <mxCell id="pL6tyoCTBJun-EuuIpV--2" value="Train (50%):&amp;nbsp;2962213&lt;br&gt;Val (25%):&amp;nbsp;1481106&lt;br&gt;Test (25%):&amp;nbsp;1481107" style="text;html=1;align=left;verticalAlign=middle;whiteSpace=wrap;rounded=0;" vertex="1" parent="1">
          <mxGeometry x="230" y="140" width="120" height="60" as="geometry" />
        </mxCell>
        <mxCell id="pL6tyoCTBJun-EuuIpV--3" value="HuggingFace Dataset&lt;br&gt;&quot;ai4bharat/samanantar&quot;" style="rounded=0;whiteSpace=wrap;html=1;" vertex="1" parent="1">
          <mxGeometry x="80" y="20" width="160" height="60" as="geometry" />
        </mxCell>
        <mxCell id="pL6tyoCTBJun-EuuIpV--4" value="" style="shape=flexArrow;endArrow=classic;html=1;rounded=0;entryX=0.5;entryY=0;entryDx=0;entryDy=0;exitX=0.5;exitY=1;exitDx=0;exitDy=0;" edge="1" parent="1" source="pL6tyoCTBJun-EuuIpV--3" target="pL6tyoCTBJun-EuuIpV--1">
          <mxGeometry width="50" height="50" relative="1" as="geometry">
            <mxPoint x="150" y="100" as="sourcePoint" />
            <mxPoint x="200" y="50" as="targetPoint" />
          </mxGeometry>
        </mxCell>
        <mxCell id="pL6tyoCTBJun-EuuIpV--5" value="Data as (src, tgt) pairs" style="text;html=1;align=left;verticalAlign=middle;whiteSpace=wrap;rounded=0;" vertex="1" parent="1">
          <mxGeometry x="-30" y="140" width="170" height="60" as="geometry" />
        </mxCell>
        <mxCell id="pL6tyoCTBJun-EuuIpV--6" value="Vocab Definition:&amp;nbsp;&lt;br&gt;All chars in English &amp;amp; Malayalam" style="rounded=0;whiteSpace=wrap;html=1;align=left;" vertex="1" parent="1">
          <mxGeometry x="470" y="20" width="190" height="60" as="geometry" />
        </mxCell>
        <mxCell id="pL6tyoCTBJun-EuuIpV--12" style="edgeStyle=orthogonalEdgeStyle;rounded=0;orthogonalLoop=1;jettySize=auto;html=1;entryX=1;entryY=0.5;entryDx=0;entryDy=0;" edge="1" parent="1" source="pL6tyoCTBJun-EuuIpV--7" target="pL6tyoCTBJun-EuuIpV--10">
          <mxGeometry relative="1" as="geometry">
            <Array as="points">
              <mxPoint x="575" y="300" />
            </Array>
          </mxGeometry>
        </mxCell>
        <mxCell id="pL6tyoCTBJun-EuuIpV--7" value="Create&lt;br&gt;ml_vocab_to_index&lt;div&gt;eng_vocab_to_index&lt;/div&gt;&lt;div&gt;ml_index_to_vocab&lt;/div&gt;&lt;div&gt;eng_index_to_vocab&lt;/div&gt;" style="rounded=0;whiteSpace=wrap;html=1;align=left;" vertex="1" parent="1">
          <mxGeometry x="480" y="140" width="190" height="90" as="geometry" />
        </mxCell>
        <mxCell id="pL6tyoCTBJun-EuuIpV--9" value="" style="shape=flexArrow;endArrow=classic;html=1;rounded=0;entryX=0.5;entryY=0;entryDx=0;entryDy=0;exitX=0.5;exitY=1;exitDx=0;exitDy=0;" edge="1" parent="1">
          <mxGeometry width="50" height="50" relative="1" as="geometry">
            <mxPoint x="564.5" y="80" as="sourcePoint" />
            <mxPoint x="564.5" y="140" as="targetPoint" />
          </mxGeometry>
        </mxCell>
        <mxCell id="pL6tyoCTBJun-EuuIpV--19" value="" style="edgeStyle=orthogonalEdgeStyle;rounded=0;orthogonalLoop=1;jettySize=auto;html=1;" edge="1" parent="1" source="pL6tyoCTBJun-EuuIpV--10" target="pL6tyoCTBJun-EuuIpV--17">
          <mxGeometry relative="1" as="geometry" />
        </mxCell>
        <mxCell id="pL6tyoCTBJun-EuuIpV--10" value="Preprocessing" style="rounded=0;whiteSpace=wrap;html=1;" vertex="1" parent="1">
          <mxGeometry x="100" y="270" width="120" height="60" as="geometry" />
        </mxCell>
        <mxCell id="pL6tyoCTBJun-EuuIpV--11" value="" style="shape=flexArrow;endArrow=classic;html=1;rounded=0;entryX=0.5;entryY=0;entryDx=0;entryDy=0;exitX=0.5;exitY=1;exitDx=0;exitDy=0;" edge="1" parent="1" target="pL6tyoCTBJun-EuuIpV--10">
          <mxGeometry width="50" height="50" relative="1" as="geometry">
            <mxPoint x="159.5" y="200" as="sourcePoint" />
            <mxPoint x="159.5" y="260" as="targetPoint" />
          </mxGeometry>
        </mxCell>
        <mxCell id="pL6tyoCTBJun-EuuIpV--15" value="&lt;ul&gt;&lt;li&gt;&lt;strong style=&quot;&quot; data-is-only-node=&quot;&quot; data-end=&quot;12&quot; data-start=&quot;2&quot;&gt;Train:&lt;/strong&gt;&lt;span style=&quot;&quot;&gt;&amp;nbsp;Only sentences where both Malayalam and English have valid tokens are considered.&lt;/span&gt;&lt;/li&gt;&lt;li&gt;&lt;strong style=&quot;color: light-dark(rgb(0, 0, 0), rgb(255, 255, 255)); background-color: transparent;&quot; data-is-only-node=&quot;&quot; data-end=&quot;127&quot; data-start=&quot;99&quot;&gt;Train, Validation, Test:&lt;/strong&gt;&lt;span style=&quot;color: light-dark(rgb(0, 0, 0), rgb(255, 255, 255)); background-color: transparent;&quot;&gt;&amp;nbsp;English sentences are limited to a maximum of 300 tokens.&lt;/span&gt;&lt;/li&gt;&lt;li&gt;&lt;strong style=&quot;color: light-dark(rgb(0, 0, 0), rgb(255, 255, 255)); background-color: transparent;&quot; data-is-only-node=&quot;&quot; data-end=&quot;218&quot; data-start=&quot;190&quot;&gt;Train, Validation, Test:&lt;/strong&gt;&lt;span style=&quot;color: light-dark(rgb(0, 0, 0), rgb(255, 255, 255)); background-color: transparent;&quot;&gt;&amp;nbsp;Malayalam sentences are limited to 299 tokens to account for the&amp;nbsp;&lt;/span&gt;&lt;code style=&quot;color: light-dark(rgb(0, 0, 0), rgb(255, 255, 255)); background-color: transparent;&quot; data-end=&quot;293&quot; data-start=&quot;284&quot;&gt;&amp;lt;start&amp;gt;&lt;/code&gt;&lt;span style=&quot;color: light-dark(rgb(0, 0, 0), rgb(255, 255, 255)); background-color: transparent;&quot;&gt;&amp;nbsp;token.&lt;/span&gt;&lt;/li&gt;&lt;/ul&gt;" style="text;html=1;align=left;verticalAlign=middle;whiteSpace=wrap;rounded=0;" vertex="1" parent="1">
          <mxGeometry x="-250" y="260" width="340" height="100" as="geometry" />
        </mxCell>
        <mxCell id="pL6tyoCTBJun-EuuIpV--23" value="" style="edgeStyle=orthogonalEdgeStyle;rounded=0;orthogonalLoop=1;jettySize=auto;html=1;" edge="1" parent="1" source="pL6tyoCTBJun-EuuIpV--16" target="pL6tyoCTBJun-EuuIpV--22">
          <mxGeometry relative="1" as="geometry" />
        </mxCell>
        <mxCell id="pL6tyoCTBJun-EuuIpV--16" value="Train Data Loader" style="rounded=0;whiteSpace=wrap;html=1;" vertex="1" parent="1">
          <mxGeometry x="20" y="410" width="120" height="60" as="geometry" />
        </mxCell>
        <mxCell id="pL6tyoCTBJun-EuuIpV--25" value="" style="edgeStyle=orthogonalEdgeStyle;rounded=0;orthogonalLoop=1;jettySize=auto;html=1;entryX=0.5;entryY=0;entryDx=0;entryDy=0;" edge="1" parent="1" source="pL6tyoCTBJun-EuuIpV--17" target="pL6tyoCTBJun-EuuIpV--22">
          <mxGeometry relative="1" as="geometry">
            <mxPoint x="240" y="520" as="targetPoint" />
          </mxGeometry>
        </mxCell>
        <mxCell id="pL6tyoCTBJun-EuuIpV--17" value="Val Data Loader" style="rounded=0;whiteSpace=wrap;html=1;" vertex="1" parent="1">
          <mxGeometry x="180" y="410" width="120" height="60" as="geometry" />
        </mxCell>
        <mxCell id="pL6tyoCTBJun-EuuIpV--20" value="" style="edgeStyle=orthogonalEdgeStyle;rounded=0;orthogonalLoop=1;jettySize=auto;html=1;entryX=0.5;entryY=0;entryDx=0;entryDy=0;exitX=0.5;exitY=1;exitDx=0;exitDy=0;" edge="1" parent="1" source="pL6tyoCTBJun-EuuIpV--10" target="pL6tyoCTBJun-EuuIpV--16">
          <mxGeometry relative="1" as="geometry">
            <mxPoint x="170" y="340" as="sourcePoint" />
            <mxPoint x="250" y="420" as="targetPoint" />
          </mxGeometry>
        </mxCell>
        <mxCell id="pL6tyoCTBJun-EuuIpV--21" value="&lt;ul&gt;&lt;li&gt;&lt;b&gt;Train Data - 1M&lt;/b&gt;&lt;/li&gt;&lt;li&gt;&lt;b&gt;Val Data - 100K&lt;/b&gt;&lt;/li&gt;&lt;li&gt;&lt;b&gt;Batch Size - 64&lt;/b&gt;&lt;/li&gt;&lt;/ul&gt;" style="text;html=1;align=left;verticalAlign=middle;whiteSpace=wrap;rounded=0;" vertex="1" parent="1">
          <mxGeometry x="-130" y="400" width="140" height="80" as="geometry" />
        </mxCell>
        <mxCell id="pL6tyoCTBJun-EuuIpV--32" value="" style="edgeStyle=orthogonalEdgeStyle;rounded=0;orthogonalLoop=1;jettySize=auto;html=1;" edge="1" parent="1" source="pL6tyoCTBJun-EuuIpV--22" target="pL6tyoCTBJun-EuuIpV--30">
          <mxGeometry relative="1" as="geometry" />
        </mxCell>
        <mxCell id="pL6tyoCTBJun-EuuIpV--22" value="Tokenizer" style="whiteSpace=wrap;html=1;rounded=0;" vertex="1" parent="1">
          <mxGeometry x="140" y="520" width="120" height="60" as="geometry" />
        </mxCell>
        <mxCell id="pL6tyoCTBJun-EuuIpV--26" value="Create Attention Masks" style="whiteSpace=wrap;html=1;rounded=0;" vertex="1" parent="1">
          <mxGeometry y="520" width="120" height="60" as="geometry" />
        </mxCell>
        <mxCell id="pL6tyoCTBJun-EuuIpV--28" value="" style="endArrow=classic;html=1;rounded=0;exitX=0.25;exitY=1;exitDx=0;exitDy=0;" edge="1" parent="1" source="pL6tyoCTBJun-EuuIpV--16">
          <mxGeometry width="50" height="50" relative="1" as="geometry">
            <mxPoint x="80" y="470" as="sourcePoint" />
            <mxPoint x="50" y="520" as="targetPoint" />
          </mxGeometry>
        </mxCell>
        <mxCell id="pL6tyoCTBJun-EuuIpV--29" value="" style="edgeStyle=orthogonalEdgeStyle;rounded=0;orthogonalLoop=1;jettySize=auto;html=1;exitX=0.5;exitY=1;exitDx=0;exitDy=0;" edge="1" parent="1" source="pL6tyoCTBJun-EuuIpV--17">
          <mxGeometry relative="1" as="geometry">
            <mxPoint x="250" y="480" as="sourcePoint" />
            <mxPoint x="50" y="520" as="targetPoint" />
          </mxGeometry>
        </mxCell>
        <mxCell id="pL6tyoCTBJun-EuuIpV--30" value="Transformer" style="whiteSpace=wrap;html=1;aspect=fixed;" vertex="1" parent="1">
          <mxGeometry y="640" width="270" height="270" as="geometry" />
        </mxCell>
        <mxCell id="pL6tyoCTBJun-EuuIpV--31" style="edgeStyle=orthogonalEdgeStyle;rounded=0;orthogonalLoop=1;jettySize=auto;html=1;exitX=0.5;exitY=1;exitDx=0;exitDy=0;entryX=0.219;entryY=0.004;entryDx=0;entryDy=0;entryPerimeter=0;" edge="1" parent="1" source="pL6tyoCTBJun-EuuIpV--26" target="pL6tyoCTBJun-EuuIpV--30">
          <mxGeometry relative="1" as="geometry" />
        </mxCell>
        <mxCell id="pL6tyoCTBJun-EuuIpV--33" value="" style="shape=flexArrow;endArrow=classic;html=1;rounded=0;" edge="1" parent="1">
          <mxGeometry width="50" height="50" relative="1" as="geometry">
            <mxPoint x="134.5" y="910" as="sourcePoint" />
            <mxPoint x="135" y="1000" as="targetPoint" />
          </mxGeometry>
        </mxCell>
        <mxCell id="pL6tyoCTBJun-EuuIpV--34" value="Out put as probability of next token in the ml vocabulary" style="text;html=1;align=center;verticalAlign=middle;resizable=0;points=[];autosize=1;strokeColor=none;fillColor=none;" vertex="1" parent="1">
          <mxGeometry x="-30" y="1008" width="320" height="30" as="geometry" />
        </mxCell>
      </root>
    </mxGraphModel>
  </diagram>
</mxfile>
